<svg xmlns="http://www.w3.org/2000/svg" width="500" height="500" viewBox="0 0 500 500" version="1.1">
<path d="M 242.250 97.745 C 247.062 97.928, 254.937 97.928, 259.750 97.745 C 264.563 97.561, 260.625 97.411, 251 97.411 C 241.375 97.411, 237.438 97.561, 242.250 97.745 M 202.618 252.448 C 203.151 253.836, 198.577 254, 159.298 254 C 125.658 254, 115.020 254.292, 113.834 255.250 C 112.113 256.639, 70.055 329.075, 69.306 331.939 C 68.917 333.425, 87.636 366.672, 111.428 406.750 L 113.951 411 158.853 411 C 193.563 411, 203.987 410.716, 204.777 409.750 C 205.339 409.063, 210.397 400.400, 216.016 390.500 C 235.595 356.006, 249.121 333.957, 250.268 334.665 C 250.881 335.044, 250.449 333.812, 249.309 331.927 C 248.168 330.042, 239.468 315, 229.974 298.500 C 220.480 282, 210.752 265.245, 208.356 261.267 C 205.960 257.289, 204 253.603, 204 253.076 C 204 252.549, 203.555 251.843, 203.011 251.507 C 202.445 251.157, 202.277 251.558, 202.618 252.448" stroke="none" fill="#84c4eb" fill-rule="evenodd"/>
<path d="M 203.067 100.250 C 202.290 101.487, 195.929 112.400, 188.931 124.500 C 181.934 136.600, 172.375 153.115, 167.690 161.200 L 159.171 175.899 181.586 214.548 C 193.914 235.805, 204 253.358, 204 253.555 C 204 253.751, 205.417 256.294, 207.149 259.206 C 208.881 262.118, 220.203 281.600, 232.310 302.500 C 257.248 345.552, 256.519 344.290, 272.472 372 C 278.963 383.275, 286.713 396.662, 289.695 401.750 L 295.117 411 340.046 411 L 384.975 411 387.341 407.250 C 389.434 403.934, 411.300 366.129, 425.304 341.614 C 430.161 333.110, 430.315 332.615, 428.871 330.114 C 424.433 322.431, 399.223 278.705, 392.770 267.500 C 388.653 260.350, 377.197 240.550, 367.311 223.500 C 357.426 206.450, 344.710 184.400, 339.054 174.500 C 333.398 164.600, 321.121 143.338, 311.773 127.250 L 294.775 98 249.628 98 L 204.481 98 203.067 100.250" stroke="none" fill="#1b34b2" fill-rule="evenodd"/></svg>