<?xml version="1.0" standalone="no"?>
<!DOCTYPE svg PUBLIC "-//W3C//DTD SVG 20010904//EN"
 "http://www.w3.org/TR/2001/REC-SVG-20010904/DTD/svg10.dtd">
<svg version="1.0" xmlns="http://www.w3.org/2000/svg"
 width="1080.000000pt" height="1080.000000pt" viewBox="0 0 1080.000000 1080.000000"
 preserveAspectRatio="xMidYMid meet">

<g transform="translate(0.000000,1080.000000) scale(0.100000,-0.100000)"
fill="#0061A2" stroke="none">
<path d="M5390 8926 c-106 -42 -126 -52 -138 -63 -7 -7 -28 -15 -47 -19 -19
-3 -39 -12 -45 -19 -6 -8 -26 -17 -43 -21 -18 -3 -43 -15 -57 -24 -14 -10 -42
-21 -63 -25 -20 -4 -39 -11 -42 -15 -3 -5 -29 -16 -58 -26 -28 -9 -61 -23 -72
-30 -11 -8 -32 -14 -48 -14 -15 0 -49 -11 -75 -25 -26 -14 -57 -25 -70 -25
-13 0 -35 -9 -49 -20 -15 -12 -41 -20 -63 -20 -21 0 -48 -8 -61 -18 -13 -11
-44 -22 -69 -26 -25 -4 -54 -13 -66 -21 -12 -7 -39 -17 -60 -21 -21 -3 -52
-13 -67 -21 -16 -8 -55 -19 -87 -24 -32 -5 -71 -16 -86 -24 -16 -8 -49 -17
-74 -20 -25 -4 -66 -15 -92 -26 -26 -10 -62 -19 -80 -19 -18 -1 -51 -8 -73
-16 -22 -9 -77 -21 -123 -29 -45 -7 -89 -18 -96 -25 -8 -6 -50 -15 -93 -20
-95 -11 -205 -50 -213 -76 -4 -11 -13 -35 -21 -54 -14 -30 -15 -77 -8 -350 9
-397 35 -821 53 -880 8 -25 17 -87 21 -139 4 -51 13 -114 21 -140 7 -25 16
-73 20 -106 4 -33 13 -75 20 -94 8 -18 19 -63 24 -98 6 -36 17 -78 25 -93 8
-15 19 -55 24 -88 5 -34 14 -70 20 -81 6 -11 16 -43 22 -73 6 -29 16 -62 23
-73 7 -11 18 -40 25 -65 13 -50 16 -57 60 -151 17 -36 31 -71 31 -77 0 -6 9
-26 20 -44 11 -18 20 -40 20 -49 0 -9 9 -28 20 -42 11 -14 20 -31 20 -39 0 -8
11 -29 25 -48 14 -19 25 -41 25 -49 0 -8 7 -22 15 -31 8 -8 28 -43 46 -75 17
-33 40 -71 50 -84 11 -13 19 -28 19 -33 0 -8 56 -85 71 -98 3 -3 12 -15 18
-28 13 -24 29 -45 69 -88 12 -14 22 -30 22 -37 0 -7 14 -25 31 -41 17 -16 43
-48 57 -70 39 -62 254 -284 422 -435 52 -47 101 -93 108 -103 7 -10 20 -18 28
-18 8 0 14 -3 14 -7 1 -5 23 -24 51 -43 28 -19 61 -45 75 -57 14 -13 30 -23
37 -24 7 0 32 -16 57 -34 25 -19 74 -51 110 -72 36 -20 71 -43 78 -50 7 -7 19
-13 26 -13 7 0 21 -8 32 -18 21 -20 57 -41 114 -67 82 -38 162 -80 166 -87 3
-4 40 -8 83 -8 63 0 83 4 104 20 14 11 28 20 31 20 9 0 121 56 181 90 28 16
64 36 82 44 17 9 34 20 38 26 3 5 21 17 40 26 19 9 35 20 35 25 0 5 8 9 19 9
10 0 24 7 31 15 17 21 98 75 112 75 5 0 19 11 30 25 11 14 24 25 30 25 5 0 24
11 42 25 17 14 41 34 54 43 13 9 35 28 51 42 15 14 63 57 106 95 184 164 434
432 509 547 16 24 16 29 2 55 -23 44 -206 233 -225 233 -18 0 -68 -50 -166
-166 -64 -77 -242 -254 -324 -324 -116 -99 -119 -102 -124 -150 -9 -86 -36
-139 -108 -211 -50 -49 -79 -70 -104 -75 -19 -3 -39 -12 -46 -20 -9 -10 -40
-14 -123 -14 -107 0 -206 -18 -230 -41 -17 -15 -61 -10 -112 13 -41 19 -69 23
-177 24 -70 1 -133 6 -140 11 -7 5 -31 15 -54 23 -60 18 -178 136 -189 188 -3
15 -9 36 -13 47 -5 11 -13 42 -20 68 -11 47 -22 61 -95 119 -47 38 -276 267
-351 352 -62 69 -93 110 -137 181 -7 11 -18 24 -25 28 -7 4 -20 23 -29 42 -9
19 -20 35 -25 35 -5 0 -9 6 -9 13 0 7 -10 25 -23 40 -26 33 -81 129 -137 242
-22 44 -45 87 -50 95 -5 8 -21 42 -35 75 -14 33 -34 76 -44 95 -10 19 -22 51
-26 70 -4 19 -14 42 -22 51 -7 9 -18 38 -22 65 -5 27 -16 63 -25 79 -9 17 -16
39 -16 50 0 11 -9 38 -19 60 -10 23 -21 66 -25 96 -4 31 -14 69 -22 85 -9 16
-19 66 -24 111 -5 45 -13 91 -19 101 -6 11 -15 60 -21 108 -5 49 -17 121 -25
161 -34 161 -72 870 -50 934 13 36 30 49 70 49 17 0 62 11 100 25 39 13 82 25
96 25 15 0 46 9 70 20 24 11 62 20 84 20 22 0 60 9 84 20 24 11 55 20 70 20
14 1 44 8 66 16 22 8 65 22 95 30 30 8 67 21 82 29 14 8 37 15 51 15 14 0 49
11 79 25 29 14 64 25 77 25 14 0 32 7 41 15 9 8 37 19 63 24 26 4 57 15 69 23
13 8 40 18 62 22 21 4 55 16 75 27 20 10 41 19 48 19 7 0 30 9 50 20 21 11 45
20 53 20 8 0 38 11 65 25 28 13 56 25 63 25 8 0 26 8 40 19 15 10 41 21 57 25
17 4 37 13 45 20 8 8 28 16 44 20 16 4 41 16 54 27 36 28 113 25 177 -6 28
-14 55 -25 60 -25 6 0 44 -17 85 -39 41 -21 89 -42 107 -45 17 -4 37 -13 43
-21 6 -8 26 -17 43 -20 18 -4 50 -15 72 -25 75 -35 173 -70 195 -70 12 0 33
-9 47 -20 14 -11 35 -20 47 -20 12 0 37 -8 56 -19 19 -10 52 -21 72 -25 21 -4
57 -16 80 -26 24 -11 54 -20 68 -20 14 0 35 -7 47 -15 12 -8 49 -21 83 -29 33
-8 67 -19 73 -25 7 -5 40 -14 74 -20 34 -5 74 -16 90 -24 15 -8 54 -17 86 -20
32 -3 65 -11 73 -18 8 -6 56 -20 107 -30 50 -9 110 -22 132 -28 55 -14 221
-33 331 -38 77 -4 97 -2 120 13 16 10 32 23 36 29 4 5 8 64 8 130 0 142 -13
175 -77 195 -21 7 -44 18 -52 24 -7 6 -50 14 -95 17 -45 4 -96 14 -114 23 -18
9 -63 19 -100 23 -37 3 -74 11 -82 18 -8 7 -44 17 -80 22 -36 6 -85 17 -110
26 -25 9 -72 23 -105 31 -112 27 -150 37 -195 52 -25 9 -67 20 -94 25 -27 6
-65 19 -85 30 -19 10 -46 19 -59 19 -12 0 -40 9 -62 20 -22 11 -50 20 -62 20
-13 0 -37 8 -53 18 -17 11 -46 22 -65 25 -20 4 -52 16 -73 27 -20 11 -45 20
-54 20 -10 0 -31 7 -46 15 -16 8 -47 20 -70 26 -23 6 -49 17 -57 24 -8 7 -33
18 -55 24 -22 6 -49 18 -59 26 -11 8 -27 15 -36 15 -9 0 -33 9 -54 19 -21 11
-51 23 -66 26 -15 3 -36 15 -46 26 -9 10 -24 19 -33 19 -9 0 -33 9 -54 20 -50
27 -169 36 -217 16z"/>
<path d="M5305 8004 c-16 -3 -43 -11 -60 -19 -16 -7 -57 -18 -89 -24 -33 -6
-67 -18 -76 -26 -9 -8 -29 -15 -43 -15 -29 0 -221 -94 -249 -122 -10 -10 -23
-18 -29 -18 -25 0 -260 -219 -304 -283 -5 -8 -36 -55 -69 -103 -32 -49 -66
-100 -76 -114 -10 -14 -21 -41 -25 -59 -4 -18 -16 -42 -26 -52 -12 -12 -19
-33 -19 -57 0 -21 -7 -47 -15 -59 -8 -11 -21 -69 -30 -127 -8 -58 -20 -115
-27 -126 -7 -11 -30 -25 -50 -31 -32 -8 -39 -16 -49 -49 -17 -55 -1 -85 55
-109 24 -11 47 -24 50 -29 3 -5 11 -56 17 -113 6 -64 18 -119 30 -142 10 -21
19 -51 19 -68 0 -17 9 -48 20 -68 10 -20 26 -52 34 -71 88 -200 302 -455 444
-526 17 -9 32 -20 32 -25 0 -5 15 -16 33 -24 17 -9 48 -24 67 -35 19 -10 40
-19 46 -20 16 0 28 188 13 206 -6 8 -16 14 -21 14 -20 0 -128 88 -214 175 -90
92 -164 189 -164 217 0 7 -5 19 -12 26 -26 26 10 37 139 40 170 5 190 1 202
-45 6 -19 16 -43 24 -52 8 -9 17 -33 20 -54 3 -20 15 -49 26 -64 12 -14 21
-33 21 -43 0 -9 8 -26 18 -38 9 -11 22 -29 29 -39 10 -16 16 -13 62 36 29 30
51 63 51 75 0 12 -12 44 -25 71 -16 32 -25 67 -25 97 0 41 3 48 23 53 12 3
194 4 405 3 327 -3 384 -5 393 -18 14 -21 2 -86 -26 -147 -31 -64 -31 -84 -2
-109 12 -11 35 -35 50 -53 l28 -34 29 34 c16 19 29 42 30 51 0 9 11 38 25 64
14 26 25 54 25 63 0 9 9 27 20 41 11 14 20 37 20 51 0 14 9 34 19 43 17 15 38
17 170 14 101 -2 154 -7 162 -15 18 -18 -16 -88 -68 -141 -24 -24 -43 -46 -43
-50 0 -13 -193 -202 -207 -202 -2 0 -19 -10 -36 -23 -18 -12 -41 -27 -52 -33
-18 -10 -20 -21 -18 -104 1 -51 6 -97 11 -102 10 -10 82 20 82 33 0 4 13 10
29 14 16 3 37 15 47 27 11 11 26 23 35 27 34 13 185 151 264 241 54 61 111
151 136 213 6 15 15 27 20 27 5 0 9 5 9 10 0 6 14 40 30 75 17 35 30 71 30 79
0 9 9 30 20 48 12 19 20 51 20 75 0 23 6 62 14 85 8 24 17 61 21 83 8 50 24
72 55 77 38 5 56 46 44 104 -8 42 -13 49 -40 56 -17 4 -35 18 -41 30 -22 48
-53 164 -53 198 0 19 -9 52 -20 73 -11 20 -20 46 -20 58 0 12 -8 38 -19 58
-10 20 -25 50 -32 66 -8 17 -16 32 -19 35 -10 9 -70 107 -70 113 0 8 -28 44
-57 72 -13 12 -23 27 -23 32 0 5 -60 68 -134 138 -122 117 -155 141 -252 188
-17 8 -34 20 -38 25 -3 6 -21 14 -39 18 -17 3 -43 15 -56 25 -13 11 -33 19
-44 19 -11 0 -34 8 -51 19 -17 10 -58 21 -91 25 -32 4 -73 13 -90 22 -22 11
-73 16 -190 19 -88 2 -173 1 -190 -1z m212 -196 c15 -7 37 -22 49 -33 11 -11
36 -34 55 -51 45 -41 106 -110 125 -143 8 -14 26 -44 39 -66 42 -70 84 -159
96 -203 12 -40 11 -45 -10 -65 -21 -22 -25 -22 -399 -25 -349 -3 -379 -2 -393
14 -19 23 -17 102 4 139 9 17 23 46 31 65 16 35 19 42 66 115 38 59 58 83 144
167 61 60 88 79 120 87 22 5 42 9 43 10 1 1 15 -4 30 -11z m-450 -114 c3 -10
0 -22 -8 -28 -8 -6 -20 -23 -26 -38 -7 -16 -17 -28 -22 -28 -5 0 -12 -13 -16
-29 -3 -16 -13 -35 -20 -41 -8 -6 -19 -28 -26 -48 -7 -20 -16 -40 -21 -43 -5
-3 -18 -40 -30 -83 -13 -50 -30 -87 -48 -106 l-28 -30 -125 0 c-69 0 -132 3
-141 6 -22 8 -21 69 2 92 9 11 26 32 37 48 31 47 189 200 224 218 17 9 31 21
31 26 0 6 6 10 13 10 8 0 22 9 32 20 9 10 32 24 50 30 18 6 36 17 39 25 8 21
75 20 83 -1z m933 -20 c25 -19 56 -40 70 -47 14 -6 32 -19 41 -27 8 -8 33 -28
55 -45 51 -39 127 -119 187 -194 50 -65 64 -122 31 -135 -9 -3 -72 -6 -140 -6
-111 0 -126 2 -144 20 -11 11 -20 27 -20 35 0 9 -9 28 -19 43 -10 15 -22 46
-25 70 -4 24 -15 53 -26 65 -11 11 -20 30 -20 42 0 12 -9 30 -20 40 -11 10
-20 26 -20 36 0 10 -8 26 -18 36 -30 29 -51 80 -39 92 20 20 61 10 107 -25z
m-52 -628 c8 -8 15 -54 19 -127 5 -99 4 -117 -11 -131 -15 -15 -61 -17 -486
-17 -425 0 -471 1 -486 17 -14 14 -16 31 -10 126 7 109 14 132 48 145 10 4
220 5 466 3 334 -3 450 -7 460 -16z m-1137 -8 c13 -24 5 -190 -11 -232 -12
-33 -41 -37 -241 -34 -122 2 -170 7 -182 17 -24 19 -22 88 3 126 11 17 20 46
20 65 0 20 7 46 16 58 15 21 20 22 199 22 179 0 185 -1 196 -22z m1711 5 c10
-9 18 -28 18 -43 0 -16 9 -47 20 -71 11 -24 20 -65 20 -92 0 -42 -3 -49 -26
-57 -28 -11 -325 -12 -364 -1 -17 4 -26 15 -28 31 -2 14 -10 47 -18 74 -17 60
-18 148 -2 164 8 8 64 12 187 12 148 0 177 -2 193 -17z m-1737 -446 c14 -11
20 -35 26 -122 12 -153 23 -145 -207 -145 -204 0 -195 -3 -210 74 -4 22 -13
51 -20 65 -21 39 -18 118 4 130 27 16 384 14 407 -2z m1175 -2 c17 -20 3 -231
-17 -251 -12 -12 -86 -14 -463 -14 -247 0 -456 3 -465 6 -9 4 -21 17 -26 30
-10 28 -14 218 -4 233 4 8 156 11 484 11 407 0 480 -2 491 -15z m604 9 c37
-14 10 -199 -37 -261 -12 -16 -348 -18 -378 -3 -15 9 -19 21 -19 63 1 29 7 70
15 92 8 22 15 54 15 71 0 17 3 34 7 37 8 9 376 9 397 1z"/>
<path d="M7434 7652 c-7 -4 -13 -84 -18 -223 -4 -139 -11 -231 -20 -255 -7
-22 -16 -100 -19 -174 -4 -74 -13 -158 -21 -185 -9 -28 -20 -92 -26 -144 -6
-52 -15 -100 -20 -107 -6 -6 -15 -49 -21 -95 -5 -46 -14 -86 -20 -89 -5 -4
-15 -38 -23 -76 -7 -38 -20 -85 -28 -104 -16 -37 -29 -72 -59 -160 -10 -30
-23 -62 -28 -70 -4 -9 -12 -31 -16 -50 -4 -19 -16 -46 -25 -60 -10 -14 -21
-42 -25 -62 -3 -21 -10 -38 -15 -38 -5 0 -14 -17 -20 -37 -7 -21 -18 -45 -25
-53 -10 -13 -44 -73 -104 -185 -9 -16 -24 -41 -34 -55 -21 -31 -22 -65 -1 -82
9 -7 69 -64 133 -125 63 -62 119 -113 123 -113 3 0 21 26 39 58 18 31 38 64
44 72 14 17 89 151 106 190 6 14 15 32 20 40 28 50 69 135 69 143 0 6 9 31 21
56 71 153 93 213 114 303 7 32 18 64 24 72 6 7 16 40 22 72 6 33 17 69 24 81
8 11 19 47 24 80 5 32 16 74 24 93 8 19 17 65 21 101 3 37 13 79 20 95 8 16
17 67 21 112 3 46 13 105 21 130 7 26 16 88 19 137 11 174 15 210 25 245 16
56 26 436 11 454 -9 11 -46 14 -179 15 -92 0 -172 -3 -178 -7z"/>
<path d="M2500 6322 c-33 -5 -104 -55 -129 -91 -18 -24 -21 -44 -21 -123 0
-55 6 -110 15 -135 8 -23 19 -95 24 -160 5 -65 15 -131 21 -147 6 -16 15 -79
20 -140 4 -61 15 -133 23 -161 9 -27 18 -88 22 -135 3 -47 12 -105 20 -130 7
-25 18 -82 24 -128 6 -45 17 -95 24 -110 8 -15 17 -56 21 -92 4 -36 14 -75 22
-87 8 -13 17 -51 21 -85 3 -35 14 -83 23 -108 9 -25 20 -68 24 -96 3 -29 13
-65 20 -80 8 -16 17 -59 21 -96 3 -37 15 -84 26 -104 10 -21 19 -54 19 -74 1
-19 8 -53 16 -75 9 -22 20 -59 25 -81 12 -51 133 -180 284 -305 55 -45 126
-108 158 -138 32 -31 62 -57 67 -59 5 -2 28 -22 52 -44 63 -59 90 -82 123
-107 80 -60 295 -266 295 -283 0 -5 9 -18 20 -30 12 -13 20 -36 20 -55 0 -41
16 -49 62 -30 19 8 64 18 99 22 35 4 74 14 86 23 13 8 59 18 102 22 44 5 92
15 107 23 40 21 367 39 624 35 200 -3 205 -3 203 17 -9 77 -32 185 -46 212 -9
18 -17 45 -17 61 0 16 -9 37 -20 47 -11 10 -20 28 -20 40 0 11 -11 36 -25 55
-14 19 -25 39 -25 46 0 7 -11 26 -25 42 -14 17 -25 32 -25 35 0 31 -242 290
-361 387 -23 19 -55 47 -71 63 -16 15 -32 27 -37 27 -9 0 -115 82 -145 113
-10 9 -22 17 -28 17 -9 0 -57 36 -99 75 -9 8 -19 15 -23 15 -14 0 -153 119
-182 156 -16 21 -42 54 -59 73 -16 20 -33 40 -37 46 -4 5 -27 34 -50 64 -24
29 -56 72 -73 95 -16 22 -38 47 -47 54 -10 7 -18 19 -18 27 0 8 -6 18 -13 22
-6 4 -32 35 -57 68 -25 33 -48 62 -52 63 -5 2 -8 9 -8 15 0 7 -21 34 -45 60
-25 27 -45 53 -45 58 0 17 -93 69 -124 69 -45 0 -119 -38 -144 -74 -17 -25
-22 -47 -22 -94 0 -33 5 -64 10 -67 9 -6 41 -50 75 -104 6 -9 26 -36 45 -61
32 -40 46 -60 85 -118 6 -8 19 -25 30 -37 11 -13 25 -29 30 -37 6 -7 24 -31
40 -53 17 -22 35 -47 40 -56 23 -37 51 -77 87 -120 21 -26 38 -50 38 -54 0 -3
19 -31 43 -60 23 -30 53 -70 67 -90 14 -20 30 -42 35 -48 40 -49 75 -97 75
-104 0 -4 9 -16 20 -28 46 -47 111 -138 126 -175 15 -38 15 -44 -1 -80 -23
-51 -68 -75 -126 -67 -36 5 -51 14 -87 54 -52 59 -63 72 -82 105 -23 40 -93
142 -105 153 -17 15 -65 83 -65 91 0 4 -19 30 -43 58 -24 28 -59 76 -79 107
-21 31 -53 76 -73 100 -20 24 -43 52 -51 62 -8 9 -14 21 -14 27 0 5 -11 21
-25 36 -14 15 -25 30 -25 35 0 4 -6 14 -12 21 -7 7 -30 36 -50 63 -21 28 -43
57 -50 65 -8 8 -27 35 -43 60 -17 25 -49 71 -72 104 -24 32 -43 63 -43 68 0 5
-8 20 -18 33 -17 21 -19 45 -19 203 -1 145 -5 195 -21 258 -11 44 -23 122 -27
174 -3 52 -13 114 -20 137 -8 23 -17 86 -20 140 -4 54 -13 120 -21 147 -9 27
-19 96 -24 153 -4 57 -12 109 -17 116 -5 6 -16 28 -23 47 -38 97 -143 167
-230 152z"/>
<path d="M8330 6294 c-64 -44 -110 -97 -116 -134 -3 -19 -12 -55 -20 -80 -8
-25 -19 -98 -24 -163 -5 -64 -15 -127 -21 -139 -6 -12 -15 -71 -20 -132 -5
-61 -17 -147 -29 -190 -11 -44 -20 -109 -20 -146 0 -37 -7 -89 -16 -116 -10
-33 -18 -110 -22 -232 -6 -146 -10 -186 -22 -195 -8 -7 -21 -25 -28 -40 -6
-15 -19 -30 -27 -33 -8 -4 -15 -12 -15 -19 0 -6 -9 -23 -21 -36 -11 -13 -28
-36 -37 -51 -9 -16 -20 -28 -24 -28 -4 0 -8 -5 -8 -11 0 -6 -9 -23 -20 -37
-12 -15 -40 -52 -63 -82 -23 -30 -46 -62 -52 -71 -28 -47 -92 -137 -110 -156
-27 -28 -38 -43 -60 -78 -19 -30 -23 -36 -70 -89 -14 -16 -25 -35 -25 -42 0
-8 -4 -14 -8 -14 -5 0 -15 -12 -22 -27 -8 -16 -22 -37 -32 -48 -53 -57 -68
-77 -68 -86 0 -6 -17 -31 -39 -57 -21 -26 -47 -62 -57 -79 -10 -18 -22 -33
-26 -33 -4 0 -8 -6 -8 -13 0 -15 -45 -59 -77 -76 -42 -21 -97 -14 -130 19 -63
61 -53 123 37 231 8 9 26 32 40 49 14 18 35 45 48 60 12 15 22 31 22 34 0 4
28 42 63 85 121 152 157 200 157 210 0 6 6 14 13 18 6 4 30 35 51 68 21 33 45
64 52 68 8 4 14 15 14 23 0 8 11 24 25 36 14 12 25 27 25 33 0 6 20 31 45 55
25 24 45 50 45 56 0 7 6 19 13 26 7 7 33 42 58 76 103 149 113 170 104 233 -8
55 -29 82 -99 123 l-48 28 -50 -23 c-56 -26 -69 -37 -116 -94 -65 -79 -75 -91
-121 -155 -25 -36 -52 -72 -59 -80 -28 -34 -72 -93 -72 -99 0 -5 -56 -70 -109
-126 -10 -11 -22 -27 -27 -36 -31 -56 -173 -203 -222 -228 -13 -7 -32 -20 -42
-29 -67 -62 -104 -90 -179 -137 -9 -5 -52 -39 -96 -75 -44 -36 -105 -86 -135
-110 -61 -50 -290 -279 -290 -290 0 -4 -10 -18 -22 -32 -39 -43 -68 -82 -68
-92 0 -5 -7 -17 -15 -26 -22 -25 -62 -103 -70 -138 -3 -18 -13 -36 -21 -40 -8
-4 -18 -30 -23 -58 -5 -27 -15 -62 -24 -79 -9 -17 -17 -64 -19 -110 l-3 -80
200 3 c288 5 594 -13 648 -37 23 -10 71 -21 106 -25 35 -3 70 -11 77 -17 7 -6
46 -15 85 -20 41 -5 80 -16 90 -25 27 -24 52 -14 60 25 4 18 11 36 17 40 5 3
17 22 26 42 15 32 194 210 235 233 9 5 21 14 27 20 6 6 44 40 84 76 40 36 85
76 100 90 15 14 42 36 60 49 18 14 44 36 60 50 15 14 49 46 76 69 261 232 320
292 329 335 4 18 13 39 21 48 7 8 18 48 24 87 5 40 16 83 24 95 7 12 17 49 20
82 4 32 13 73 22 89 8 17 19 62 25 100 5 38 14 75 19 81 5 6 14 45 20 86 6 40
18 92 26 114 8 22 18 67 23 100 5 33 16 78 25 100 8 22 15 56 16 76 0 20 7 56
16 80 9 24 20 87 24 139 5 52 16 115 25 140 9 25 18 88 21 140 3 52 14 127 24
165 10 39 21 118 24 176 4 64 13 119 22 138 21 43 32 268 14 310 -7 17 -16 31
-21 31 -5 0 -9 6 -9 13 0 7 -18 25 -41 40 -55 36 -137 37 -189 1z"/>
<path d="M5411 5848 c-35 -5 -76 -16 -90 -26 -14 -9 -35 -22 -46 -28 -34 -19
-102 -116 -114 -164 -28 -106 -33 -152 -28 -270 2 -69 0 -136 -5 -150 -5 -14
-27 -36 -48 -49 -60 -38 -69 -81 -71 -344 -1 -234 6 -281 56 -342 l25 -30 374
0 374 0 27 25 c15 14 36 42 47 63 17 35 19 59 18 287 0 238 -1 251 -23 292
-15 28 -36 50 -62 64 l-40 20 -6 200 c-4 164 -9 208 -25 249 -10 27 -26 57
-34 66 -8 10 -26 32 -40 49 -34 42 -99 77 -167 90 -31 5 -57 9 -57 9 -1 -1
-30 -6 -65 -11z m138 -150 c56 -29 88 -63 101 -108 15 -51 13 -383 -2 -398 -8
-8 -63 -12 -179 -12 -145 0 -170 2 -185 17 -15 15 -16 36 -11 200 5 174 6 185
31 227 20 34 39 51 79 70 66 31 110 32 166 4z m1 -747 c37 -36 46 -74 32 -128
-16 -60 -15 -127 3 -170 20 -47 12 -69 -29 -83 -45 -15 -185 -6 -204 14 -13
13 -13 19 1 53 19 47 23 111 13 184 -11 79 -1 116 37 140 49 30 112 26 147
-10z"/>
<path d="M4489 2709 c-108 -5 -165 -11 -185 -22 -17 -8 -63 -19 -104 -23 -41
-3 -87 -13 -101 -20 -15 -7 -46 -16 -70 -20 -24 -3 -71 -14 -104 -25 -33 -11
-78 -24 -100 -29 -22 -6 -56 -23 -75 -39 l-35 -30 0 -295 c0 -203 3 -298 11
-306 25 -25 175 -30 840 -28 662 3 693 4 713 22 20 18 21 27 21 383 0 427 1
418 -82 427 -93 9 -568 13 -729 5z m368 -245 c30 -6 62 -32 108 -90 31 -40 34
-111 6 -152 -10 -15 -26 -39 -35 -54 -9 -16 -24 -28 -34 -28 -9 0 -30 -7 -47
-16 -39 -20 -73 -20 -110 0 -16 9 -35 16 -41 16 -20 0 -73 72 -80 107 -4 19
-4 58 -2 87 4 47 9 58 43 87 21 19 47 37 59 41 28 8 96 9 133 2z"/>
<path d="M5848 2711 c-149 -6 -157 -7 -177 -30 -20 -23 -21 -33 -21 -402 l0
-378 23 -13 c17 -10 173 -13 722 -15 674 -2 794 2 820 28 6 6 10 115 10 310 0
289 -1 301 -20 314 -11 8 -26 19 -33 26 -8 6 -36 17 -63 24 -28 8 -55 18 -62
23 -7 5 -42 15 -79 21 -36 6 -81 18 -100 25 -19 8 -63 18 -98 22 -36 3 -81 13
-100 21 -62 26 -447 37 -822 24z m384 -247 c37 -19 88 -70 88 -88 0 -8 7 -19
15 -26 9 -8 15 -30 15 -60 0 -30 -6 -52 -15 -60 -8 -7 -15 -18 -15 -25 0 -23
-48 -60 -104 -79 -53 -18 -58 -18 -109 -2 -74 23 -112 67 -121 140 -14 106 26
177 113 201 65 18 97 17 133 -1z m653 -90 c84 -68 91 -173 16 -243 -60 -55
-138 -55 -205 2 -35 30 -40 39 -44 90 -5 66 1 96 25 123 68 75 139 85 208 28z"/>
</g>
</svg>
